<svg xmlns="http://www.w3.org/2000/svg" viewBox="0 0 166.94 202.18"><defs><style>.cls-1{fill:aqua;}</style></defs><g id="Layer_2" data-name="Layer 2"><g id="Layer_1-2" data-name="Layer 1"><path class="cls-1" d="M164.91,13.57a81.66,81.66,0,0,1,1.91,13A77.77,77.77,0,0,1,163,55c-2.57,8-5.51,15.94-7.9,24a151.22,151.22,0,0,0-5.78,34.85,180.48,180.48,0,0,0,0,23.14c.29,3.85.93,7.66,1.48,11.48a11,11,0,0,1-.15,4.4,6.39,6.39,0,0,1-3.56,4.49,4.83,4.83,0,0,1-5.93-1.31,8.06,8.06,0,0,1-1.76-4.7,27.67,27.67,0,0,1,.36-6.61,77.66,77.66,0,0,0-.71-29,12.39,12.39,0,0,0-2.83-5.83,8.4,8.4,0,0,0-8.19-2.91,7.61,7.61,0,0,0-6,5.57c-1.74,5.3-1.32,10.62-.08,15.94.45,1.9,1,3.78,1.42,5.68a11.67,11.67,0,0,1-3.3,11c-2.78,2.9-6.29,2.94-9.29.25-3.16-2.82-3.5-6.47-3.18-10.31.15-1.86.88-3.62,1-5.5a9.11,9.11,0,0,0-6.11-9.18,9.77,9.77,0,0,0-11.27,3.25c-2.36,3.3-3.1,7.15-4,11-2,8.87-1.55,17.82-1.3,26.81.2,7.21,2.09,14,3.55,21,.87,4.12,1.24,8.26-.38,12.31a12.28,12.28,0,0,1-5.28,6.23c-3,1.77-6,1.24-8.08-1.49-2.46-3.2-3.15-6.95-3.22-10.82-.07-4.23,1.06-8.34,1.56-12.51,1.17-9.75,1.91-19.51,1.1-29.33-.44-5.31-.59-10.65-1.45-15.93a28.1,28.1,0,0,0-1.87-6.9,15.4,15.4,0,0,0-1.16-2.2c-2.25-3.47-4.73-4-8.21-1.57-1.06.73-2.07,1.54-3.11,2.3A14.25,14.25,0,0,1,55.05,125a4.6,4.6,0,0,1-5.28-1.58,18.46,18.46,0,0,1-2.83-6A75,75,0,0,0,44,108.83,11,11,0,0,0,25.76,106a15.42,15.42,0,0,0-2.83,4.24c-2,4.5-2.27,9.24-2,14,.46,8.84,1.75,17.61,2.73,26.4a26.71,26.71,0,0,1-1,11.2c-1.58,4.94-6.27,6.06-10.14,2.46-2.57-2.39-3.19-5.43-3-8.71.36-7.47.83-13.5,1.17-17.5.75-8.58,1.57-12.47,2.36-24.21.31-4.59.82-9.17,1-13.76.22-7.67-1.5-15-4-22.29-3.53-10-7.29-17.21-7.35-18.57L0,1.21,166.6,0Z"/></g></g></svg>