<svg xmlns="http://www.w3.org/2000/svg" viewBox="0 0 14.74 13.08"><defs><style>.cls-1{fill:aqua;}</style></defs><g id="Layer_2" data-name="Layer 2"><g id="Layer_1-2" data-name="Layer 1"><path class="cls-1" d="M9.33,1.11l.8,1.32a2.31,2.31,0,0,0,1.69,1.09l.9.1a2.29,2.29,0,0,1,1.15,4.07h0A2.27,2.27,0,0,0,13.06,10l.08.37A2.29,2.29,0,0,1,10,12.89l-1.72-.73a2.25,2.25,0,0,0-1.8,0l-1.72.73A2.29,2.29,0,0,1,1.6,10.32L1.68,10A2.29,2.29,0,0,0,.87,7.69h0A2.29,2.29,0,0,1,2,3.62l.9-.1A2.31,2.31,0,0,0,4.61,2.43l.8-1.32A2.29,2.29,0,0,1,9.33,1.11Z"/></g></g></svg>