<svg xmlns="http://www.w3.org/2000/svg" viewBox="0 0 14 12.43"><defs><style>.cls-1{fill:#ff74b7;}</style></defs><g id="Layer_2" data-name="Layer 2"><g id="Layer_1-2" data-name="Layer 1"><path class="cls-1" d="M8.86,1.05l.76,1.26a2.19,2.19,0,0,0,1.6,1l.86.1a2.17,2.17,0,0,1,1.1,3.86h0a2.17,2.17,0,0,0-.78,2.15l.08.35a2.18,2.18,0,0,1-3,2.45l-1.63-.7a2.14,2.14,0,0,0-1.72,0l-1.63.7a2.18,2.18,0,0,1-3-2.45l.08-.35A2.17,2.17,0,0,0,.82,7.3h0a2.17,2.17,0,0,1,1.1-3.86l.86-.1a2.19,2.19,0,0,0,1.6-1l.76-1.26A2.17,2.17,0,0,1,8.86,1.05Z"/></g></g></svg>