<svg xmlns="http://www.w3.org/2000/svg" viewBox="0 0 12 11.94"><defs><style>.cls-1{fill:aqua;}</style></defs><g id="Layer_2" data-name="Layer 2"><g id="Layer_1-2" data-name="Layer 1"><path class="cls-1" d="M7.6,1l.65,1.2a1.85,1.85,0,0,0,1.37,1l.74.1A2.16,2.16,0,0,1,11.3,7h0a2.24,2.24,0,0,0-.67,2.06l.07.34a1.94,1.94,0,0,1-2.56,2.35l-1.4-.67a1.65,1.65,0,0,0-1.47,0l-1.41.67A1.94,1.94,0,0,1,1.3,9.42l.07-.34A2.24,2.24,0,0,0,.71,7h0a2.16,2.16,0,0,1,.94-3.71l.73-.1a1.87,1.87,0,0,0,1.38-1L4.41,1A1.76,1.76,0,0,1,7.6,1Z"/></g></g></svg>