<svg xmlns="http://www.w3.org/2000/svg" viewBox="0 0 16.67 13.23"><defs><style>.cls-1{fill:#fa0099;}</style></defs><g id="Layer_2" data-name="Layer 2"><g id="Layer_1-2" data-name="Layer 1"><path class="cls-1" d="M10.55,1.12l.9,1.33a2.63,2.63,0,0,0,1.91,1.1l1,.11c2.29.24,3.11,2.83,1.31,4.11h0a2.18,2.18,0,0,0-.92,2.29l.09.37c.43,1.84-1.63,3.34-3.56,2.6l-1.94-.74a2.9,2.9,0,0,0-2,0L5.37,13c-1.93.74-4-.76-3.56-2.6l.09-.37A2.18,2.18,0,0,0,1,7.77H1C-.82,6.49,0,3.9,2.29,3.66l1-.11a2.63,2.63,0,0,0,1.91-1.1l.9-1.33A2.75,2.75,0,0,1,10.55,1.12Z"/></g></g></svg>