<svg xmlns="http://www.w3.org/2000/svg" viewBox="0 0 14.74 10.03"><defs><style>.cls-1{fill:#f60cff;}</style></defs><g id="Layer_2" data-name="Layer 2"><g id="Layer_1-2" data-name="Layer 1"><path class="cls-1" d="M9.33.85l.8,1a2.41,2.41,0,0,0,1.69.83l.9.09c2,.18,2.74,2.14,1.15,3.11h0a1.54,1.54,0,0,0-.81,1.73l.08.29c.38,1.39-1.44,2.53-3.15,2L8.27,9.32a2.91,2.91,0,0,0-1.8,0l-1.72.56c-1.71.56-3.53-.58-3.15-2l.08-.29A1.56,1.56,0,0,0,.87,5.89h0C-.73,4.92,0,3,2,2.78l.9-.09a2.41,2.41,0,0,0,1.69-.83l.8-1A2.69,2.69,0,0,1,9.33.85Z"/></g></g></svg>