<svg xmlns="http://www.w3.org/2000/svg" viewBox="0 0 14.67 12.24"><defs><style>.cls-1{fill:#eff400;}</style></defs><g id="Layer_2" data-name="Layer 2"><g id="Layer_1-2" data-name="Layer 1"><path class="cls-1" d="M9.28,1l.8,1.24a2.27,2.27,0,0,0,1.68,1l.9.1a2.11,2.11,0,0,1,1.15,3.8h0A2.07,2.07,0,0,0,13,9.31l.07.35A2.24,2.24,0,0,1,10,12.07l-1.72-.7a2.41,2.41,0,0,0-1.79,0l-1.72.7A2.25,2.25,0,0,1,1.59,9.66l.08-.35A2.07,2.07,0,0,0,.86,7.19h0A2.11,2.11,0,0,1,2,3.39l.9-.1a2.27,2.27,0,0,0,1.68-1L5.38,1A2.36,2.36,0,0,1,9.28,1Z"/></g></g></svg>